<?xml version="1.0" standalone="no"?>
<!DOCTYPE svg PUBLIC "-//W3C//DTD SVG 20010904//EN"
 "http://www.w3.org/TR/2001/REC-SVG-20010904/DTD/svg10.dtd">
<svg version="1.0" xmlns="http://www.w3.org/2000/svg"
 width="1352.000000pt" height="676.000000pt" viewBox="0 0 1352.000000 676.000000"
 preserveAspectRatio="xMidYMid meet">

<g transform="translate(0.000000,676.000000) scale(0.100000,-0.100000)"
fill="#000000" stroke="none">
<path d="M7607 6728 c-34 -46 -47 -91 -47 -160 0 -101 49 -177 142 -219 l53
-24 1025 -5 1025 -5 41 -22 c54 -29 110 -93 143 -162 25 -54 26 -62 29 -279 4
-265 -3 -298 -77 -372 -84 -84 -35 -80 -959 -80 l-814 0 -34 -34 c-26 -26 -34
-42 -34 -69 0 -53 16 -85 52 -107 32 -19 51 -20 821 -20 571 0 801 -3 835 -12
58 -14 146 -98 183 -173 23 -49 24 -55 24 -295 0 -276 -2 -285 -82 -362 -74
-72 -24 -68 -903 -68 -776 0 -792 0 -831 -20 -43 -23 -75 -67 -85 -117 -10
-55 59 -342 104 -429 52 -101 179 -178 292 -178 65 0 106 10 1165 279 160 40
551 140 870 220 319 80 747 189 950 240 204 52 694 175 1090 275 396 100 736
191 757 201 54 27 105 75 134 125 14 24 30 44 35 44 5 0 9 382 9 930 l0 930
-2944 0 -2945 0 -24 -32z m5645 -235 c38 -34 8 -113 -42 -113 -27 0 -70 43
-70 70 0 49 73 78 112 43z m-304 -79 c12 -8 22 -26 22 -40 0 -29 -32 -64 -60
-64 -24 0 -60 34 -60 57 0 22 39 63 60 63 8 0 26 -7 38 -16z m140 -237 c4 -21
-25 -34 -40 -19 -8 8 -8 16 2 27 16 19 34 15 38 -8z m84 -153 c33 -17 45 -57
27 -90 -24 -45 -51 -42 -249 26 -102 34 -198 69 -213 77 -38 19 -52 58 -32 90
31 46 47 45 250 -24 104 -36 202 -71 217 -79z m-355 -61 c4 -9 -6 -40 -23 -72
l-29 -56 -75 -6 c-169 -15 -289 -99 -361 -253 -78 -167 -34 -371 108 -496 218
-191 551 -119 675 147 64 136 46 306 -45 429 -24 33 -60 70 -80 84 -41 28 -44
42 -21 99 18 45 41 59 62 37 11 -11 12 -21 4 -45 -10 -29 -8 -33 43 -85 106
-109 159 -268 136 -410 -42 -266 -299 -458 -555 -417 -268 43 -460 302 -416
560 35 210 205 378 415 412 41 6 75 15 75 18 0 3 9 21 20 39 21 35 56 43 67
15z m-22 -246 c22 -31 18 -72 -9 -103 -64 -75 -182 10 -135 97 26 50 111 53
144 6z m-320 -188 c22 -12 65 -42 95 -67 95 -78 144 -95 293 -100 117 -4 131
-7 157 -28 84 -71 14 -201 -150 -278 -57 -27 -75 -31 -150 -31 -74 0 -93 4
-152 32 -37 17 -88 52 -113 78 -109 109 -152 319 -80 391 30 29 49 30 100 3z
m395 -49 c11 -11 20 -29 20 -40 0 -24 -34 -60 -55 -60 -18 0 -65 44 -65 60 0
16 47 60 65 60 8 0 24 -9 35 -20z"/>
<path d="M1335 6650 c-27 -4 6 -5 75 -2 69 2 127 6 129 8 7 6 -151 1 -204 -6z"/>
<path d="M1568 6643 c12 -2 32 -2 45 0 12 2 2 4 -23 4 -25 0 -35 -2 -22 -4z"/>
<path d="M1243 6633 c9 -2 23 -2 30 0 6 3 -1 5 -18 5 -16 0 -22 -2 -12 -5z"/>
<path d="M1663 6633 c9 -2 23 -2 30 0 6 3 -1 5 -18 5 -16 0 -22 -2 -12 -5z"/>
<path d="M1160 6620 c-20 -6 -21 -8 -5 -8 11 0 31 4 45 8 20 6 21 8 5 8 -11 0
-31 -4 -45 -8z"/>
<path d="M1730 6620 c14 -4 34 -8 45 -8 16 0 15 2 -5 8 -14 4 -34 8 -45 8 -16
0 -15 -2 5 -8z"/>
<path d="M1015 6576 c-433 -157 -757 -522 -856 -966 -10 -47 -18 -96 -18 -110
0 -14 9 16 19 65 52 261 165 477 351 669 155 162 312 263 518 337 58 21 99 38
91 38 -8 0 -56 -15 -105 -33z"/>
<path d="M1315 6604 c-312 -48 -561 -169 -765 -374 -251 -251 -380 -563 -380
-921 0 -335 122 -641 352 -885 193 -203 448 -341 722 -389 114 -19 328 -19
442 0 274 48 529 186 722 389 231 245 352 550 352 892 0 214 -41 386 -140 581
-177 351 -490 594 -880 684 -83 20 -353 34 -425 23z"/>
<path d="M1838 6593 c7 -3 16 -2 19 1 4 3 -2 6 -13 5 -11 0 -14 -3 -6 -6z"/>
<path d="M1939 6559 c24 -11 46 -18 48 -15 4 4 -73 36 -85 35 -4 0 13 -9 37
-20z"/>
<path d="M2001 6536 c10 -9 109 -56 109 -51 0 5 -95 55 -106 55 -4 0 -5 -2 -3
-4z"/>
<path d="M2121 6477 c3 -4 34 -25 70 -47 35 -22 51 -30 35 -16 -27 22 -118 77
-105 63z"/>
<path d="M2260 6388 c0 -2 26 -26 58 -53 31 -27 48 -39 37 -26 -21 24 -95 86
-95 79z"/>
<path d="M2380 6287 c0 -2 15 -16 33 -33 l32 -29 -29 33 c-28 30 -36 37 -36
29z"/>
<path d="M2447 6209 c7 -7 15 -10 18 -7 3 3 -2 9 -12 12 -14 6 -15 5 -6 -5z"/>
<path d="M125 5388 c-4 -46 -3 -117 2 -158 8 -68 9 -60 9 83 1 86 0 157 -2
157 -1 0 -5 -37 -9 -82z"/>
<path d="M141 5130 c-1 -14 10 -72 24 -130 92 -378 351 -702 700 -877 81 -41
216 -93 238 -93 7 1 -29 16 -79 34 -447 163 -764 530 -864 1002 -10 49 -19 78
-19 64z"/>
<path d="M2774 5083 c-50 -219 -105 -353 -208 -507 -25 -38 -46 -70 -46 -72 0
-3 1128 -3 2508 -2 l2507 3 50 23 c119 55 187 168 186 313 0 77 -32 149 -87
197 -81 72 134 67 -2511 70 l-2393 2 -6 -27z"/>
<path d="M2375 4352 c-89 -85 -178 -149 -297 -212 -51 -27 -89 -50 -84 -50 22
0 193 99 268 156 71 53 202 175 188 174 -3 0 -37 -31 -75 -68z"/>
<path d="M1900 4060 c-8 -5 -10 -10 -5 -10 6 0 17 5 25 10 8 5 11 10 5 10 -5
0 -17 -5 -25 -10z"/>
<path d="M1835 4040 c-13 -5 -14 -9 -5 -9 8 0 24 4 35 9 13 5 14 9 5 9 -8 0
-24 -4 -35 -9z"/>
<path d="M1128 4023 c7 -3 16 -2 19 1 4 3 -2 6 -13 5 -11 0 -14 -3 -6 -6z"/>
<path d="M1788 4023 c7 -3 16 -2 19 1 4 3 -2 6 -13 5 -11 0 -14 -3 -6 -6z"/>
<path d="M1168 4013 c7 -3 16 -2 19 1 4 3 -2 6 -13 5 -11 0 -14 -3 -6 -6z"/>
<path d="M1748 4013 c7 -3 16 -2 19 1 4 3 -2 6 -13 5 -11 0 -14 -3 -6 -6z"/>
<path d="M1208 4003 c6 -2 18 -2 25 0 6 3 1 5 -13 5 -14 0 -19 -2 -12 -5z"/>
<path d="M1698 4003 c6 -2 18 -2 25 0 6 3 1 5 -13 5 -14 0 -19 -2 -12 -5z"/>
<path d="M1263 3993 c9 -2 25 -2 35 0 9 3 1 5 -18 5 -19 0 -27 -2 -17 -5z"/>
<path d="M1633 3993 c9 -2 23 -2 30 0 6 3 -1 5 -18 5 -16 0 -22 -2 -12 -5z"/>
<path d="M1353 3983 c15 -2 39 -2 55 0 15 2 2 4 -28 4 -30 0 -43 -2 -27 -4z"/>
<path d="M1523 3983 c15 -2 39 -2 55 0 15 2 2 4 -28 4 -30 0 -43 -2 -27 -4z"/>
<path d="M517 3309 c-57 -30 -77 -70 -77 -154 0 -81 26 -145 73 -179 l28 -21
3416 -3 3417 -2 43 21 c70 34 88 68 88 171 0 94 -11 119 -69 162 l-27 21
-3427 2 c-3412 2 -3427 2 -3465 -18z"/>
<path d="M1778 2421 l-33 -29 -5 -164 c-3 -89 -2 -194 2 -233 6 -61 11 -74 38
-97 l30 -28 209 0 c200 0 209 1 242 23 55 37 59 52 59 267 0 215 -4 230 -59
267 -33 22 -42 23 -242 23 l-209 0 -32 -29z"/>
<path d="M2583 2440 c-12 -5 -30 -21 -40 -37 -16 -24 -18 -52 -18 -243 0 -191
2 -219 18 -243 10 -16 29 -32 43 -37 14 -6 113 -10 221 -10 299 0 293 -6 293
290 0 296 6 290 -297 289 -109 0 -208 -4 -220 -9z"/>
<path d="M3351 2436 c-47 -26 -50 -46 -51 -279 l0 -219 34 -34 34 -34 209 0
c307 0 304 -3 300 308 -2 219 -4 224 -69 258 -38 20 -422 20 -457 0z"/>
<path d="M4133 2440 c-12 -5 -30 -21 -40 -37 -16 -24 -18 -52 -18 -243 0 -191
2 -219 18 -243 10 -16 29 -32 43 -37 14 -6 113 -10 221 -10 299 0 293 -6 293
290 0 296 6 290 -297 289 -109 0 -208 -4 -220 -9z"/>
<path d="M4899 2435 c-46 -25 -50 -54 -47 -289 l3 -218 33 -29 32 -29 208 0
c307 0 305 -1 300 310 -3 217 -5 222 -70 256 -39 20 -422 19 -459 -1z"/>
<path d="M5668 2434 c-15 -8 -32 -23 -38 -34 -17 -31 -13 -445 4 -479 24 -46
50 -51 262 -51 304 0 298 -6 298 290 1 296 7 290 -301 290 -155 -1 -204 -4
-225 -16z"/>
<path d="M1783 1662 c-37 -29 -43 -65 -43 -268 0 -299 -4 -294 285 -294 209 0
241 7 275 62 18 30 20 50 20 224 0 112 -5 204 -11 222 -6 17 -26 41 -44 52
-30 18 -49 20 -246 20 -187 0 -217 -3 -236 -18z"/>
<path d="M2560 1652 c-37 -38 -43 -79 -38 -299 2 -122 7 -185 16 -201 25 -44
66 -52 267 -52 203 0 235 6 273 55 21 26 22 37 22 239 0 297 12 286 -300 286
l-212 0 -28 -28z"/>
<path d="M3344 1665 c-41 -28 -45 -60 -42 -288 l3 -217 28 -27 27 -28 218 0
c210 0 218 1 249 23 48 34 55 75 51 294 l-3 190 -38 34 -37 34 -218 0 c-175 0
-222 -3 -238 -15z"/>
<path d="M4110 1652 c-37 -38 -43 -79 -38 -299 2 -122 7 -185 16 -201 25 -44
66 -52 267 -52 203 0 235 6 273 55 21 26 22 37 22 239 0 297 12 286 -300 286
l-212 0 -28 -28z"/>
<path d="M4894 1665 c-41 -28 -45 -60 -42 -288 l3 -217 28 -27 27 -28 218 0
c210 0 218 1 249 23 49 35 55 71 51 290 l-3 194 -37 34 -38 34 -218 0 c-175 0
-222 -3 -238 -15z"/>
<path d="M5649 1651 l-29 -29 0 -226 0 -226 29 -32 29 -33 198 -3 c163 -3 205
0 240 13 73 28 77 42 78 264 1 106 -3 208 -9 225 -5 16 -25 41 -44 53 -33 22
-42 23 -248 23 l-215 0 -29 -29z"/>
<path d="M7149 1166 c-6 -5 -334 -52 -1104 -156 -368 -50 -782 -106 -920 -125
-347 -48 -661 -91 -2788 -380 -539 -73 -795 -112 -832 -126 -70 -26 -146 -98
-179 -168 -27 -59 -42 -146 -32 -186 l6 -25 6110 0 6110 0 0 166 0 167 -697
-7 c-384 -4 -750 -9 -813 -11 -63 -3 -421 -7 -795 -10 -374 -3 -725 -8 -780
-10 -118 -5 -1419 -20 -1750 -20 -263 0 -277 3 -371 89 -51 46 -60 61 -153
258 -29 62 -54 98 -86 126 -58 51 -650 375 -734 402 -55 17 -179 28 -192 16z"/>
</g>
</svg>
